<svg width="304" height="366" viewBox="0 0 304 366" fill="none" xmlns="http://www.w3.org/2000/svg">
<path d="M210.371 27.8908C226.859 18.4366 249.044 9.31989 263.521 17.6779C281.329 27.9597 278.583 62.1187 275.3 81.8225C279.532 91.4872 281.842 101.926 281.842 112.815C281.842 162.64 233.485 203.032 173.835 203.032C114.184 203.032 65.8282 162.64 65.8281 112.815C65.8281 101.701 68.2352 91.0564 72.6357 81.2248C69.2662 61.0423 66.7342 27.7123 84.1484 17.6789C98.3937 9.47171 120.286 18.466 136.858 28.0227C148.393 24.5122 160.846 22.5969 173.835 22.5969C186.658 22.5969 198.96 24.465 210.371 27.8908ZM191.886 126.062C191.886 118.56 159.802 118.56 159.8 126.062C159.799 132.381 164.58 138.286 171.647 139.994C168.451 146.155 162.626 151.537 157.077 151.5C152.368 151.642 147.418 147.642 143.525 142.707C143.044 142.108 142.556 141.471 142.063 140.795C141.579 140.129 140.868 139.643 140.055 139.466C139.242 139.289 138.397 139.432 137.7 139.867C137.004 140.303 136.505 141 136.308 141.808C136.11 142.616 136.236 143.468 136.622 144.196C137.068 145.021 137.522 145.811 137.983 146.567C141.663 152.523 147.778 159.46 157.134 159.522C166.417 159.063 172.572 153.117 176.241 146.308C179.91 153.117 186.066 159.063 195.35 159.522C204.706 159.46 210.821 152.523 214.5 146.567C214.962 145.811 215.416 145.021 215.861 144.196C216.248 143.468 216.373 142.616 216.176 141.808C215.978 141 215.48 140.303 214.783 139.867C214.087 139.432 213.242 139.289 212.429 139.466C211.615 139.643 210.904 140.129 210.42 140.795C209.927 141.471 209.439 142.108 208.958 142.707C205.065 147.642 200.116 151.642 195.406 151.5C189.802 151.537 183.914 146.049 180.738 139.812C187.419 137.896 191.885 132.17 191.886 126.062ZM117.321 142.479C116.73 142.288 116.085 142.319 115.538 142.58C115.311 142.689 115.084 142.799 114.856 142.907L102.586 148.788C102.359 148.897 102.131 149.006 101.904 149.114C101.136 149.482 100.562 150.135 100.322 150.952C100.082 151.768 100.196 152.682 100.626 153.469C101.056 154.256 101.764 154.845 102.58 155.084C103.397 155.324 104.256 155.194 104.98 154.746C105.195 154.614 105.409 154.482 105.623 154.35C109.483 151.967 113.343 149.585 117.202 147.202C117.416 147.07 117.631 146.937 117.846 146.805C118.361 146.486 118.735 145.96 118.895 145.36C119.053 144.758 118.985 144.13 118.694 143.599C118.404 143.067 117.913 142.67 117.321 142.479ZM234.837 142.58C234.29 142.319 233.645 142.288 233.054 142.479C232.462 142.67 231.971 143.067 231.681 143.599C231.39 144.13 231.322 144.758 231.48 145.36C231.64 145.96 232.015 146.486 232.53 146.805C232.745 146.937 232.959 147.07 233.173 147.202C237.032 149.585 240.892 151.967 244.752 154.35C244.966 154.482 245.18 154.614 245.395 154.746C246.119 155.194 246.978 155.324 247.795 155.084C248.611 154.845 249.319 154.256 249.749 153.469C250.179 152.682 250.293 151.768 250.053 150.952C249.813 150.135 249.239 149.482 248.471 149.114C248.244 149.006 248.017 148.897 247.79 148.788L235.519 142.907C235.291 142.799 235.064 142.689 234.837 142.58ZM110.685 131.353C109.963 130.945 109.113 130.811 108.329 131.005C108.085 131.066 107.84 131.126 107.596 131.187L94.3896 134.467C94.1453 134.528 93.9006 134.589 93.6562 134.65C92.6223 134.906 91.7551 135.56 91.2559 136.5C90.7562 137.438 90.6647 138.586 90.9922 139.657C91.3198 140.729 92.0368 141.63 92.9756 142.128C93.9149 142.629 94.9995 142.686 96 142.321C96.2365 142.234 96.4734 142.148 96.71 142.062C100.971 140.508 105.233 138.954 109.494 137.401C109.731 137.314 109.968 137.228 110.204 137.142C110.963 136.864 111.594 136.279 111.964 135.537C112.333 134.795 112.413 133.957 112.177 133.185C111.941 132.413 111.406 131.762 110.685 131.353ZM242.05 131.005C241.265 130.811 240.416 130.945 239.694 131.353C238.973 131.762 238.438 132.413 238.202 133.185C237.966 133.957 238.046 134.795 238.415 135.537C238.785 136.279 239.416 136.864 240.175 137.142C240.411 137.228 240.648 137.314 240.885 137.401C245.146 138.954 249.408 140.508 253.669 142.062C253.906 142.148 254.142 142.234 254.379 142.321C255.379 142.686 256.464 142.629 257.403 142.128C258.342 141.63 259.059 140.729 259.387 139.657C259.714 138.586 259.623 137.438 259.123 136.5C258.624 135.56 257.757 134.906 256.723 134.65C256.478 134.589 256.234 134.528 255.989 134.467L242.783 131.187C242.539 131.126 242.294 131.066 242.05 131.005ZM125.339 100.113C117.702 100.001 110.542 103.677 105.804 108.509C105.277 109.037 104.758 109.59 104.247 110.169C103.603 110.928 103.177 111.88 103.128 112.891C103.079 113.901 103.402 114.879 104.043 115.626C104.684 116.373 105.6 116.843 106.606 116.948C107.613 117.055 108.62 116.78 109.468 116.259C110.016 115.93 110.553 115.624 111.078 115.34C115.903 112.7 120.62 111.296 125.271 111.342C129.903 111.358 134.862 112.798 139.565 115.316C139.817 115.45 140.084 115.603 140.315 115.731C140.561 115.87 140.846 116.055 140.953 116.083C141.766 116.658 142.752 116.998 143.764 116.957C144.775 116.917 145.72 116.508 146.407 115.804C147.095 115.1 147.482 114.146 147.498 113.134C147.515 112.122 147.152 111.144 146.559 110.345C145.913 109.585 145.42 109.06 144.858 108.497C139.898 103.583 132.96 100.159 125.339 100.113ZM226.334 100.117C218.721 100.219 211.844 103.64 206.865 108.493C206.301 109.05 205.804 109.57 205.158 110.315C204.555 111.106 204.181 112.08 204.187 113.092C204.191 114.104 204.567 115.063 205.246 115.775C205.926 116.487 206.866 116.906 207.877 116.958C208.888 117.011 209.878 116.683 210.697 116.117C210.808 116.087 211.097 115.901 211.344 115.765C211.579 115.637 211.849 115.486 212.102 115.354C216.842 112.86 221.837 111.392 226.474 111.346C231.128 111.271 235.805 112.64 240.589 115.306C241.109 115.592 241.642 115.901 242.186 116.235C243.028 116.764 244.031 117.048 245.039 116.952C246.046 116.857 246.968 116.397 247.616 115.656C248.264 114.916 248.598 113.942 248.559 112.931C248.52 111.919 248.104 110.962 247.467 110.197C246.96 109.612 246.445 109.052 245.921 108.518C241.211 103.625 233.967 99.9466 226.334 100.117Z" fill="white" style="fill:white;fill-opacity:1;"/>
<path d="M90.8906 31.521C98.0071 27.29 140.835 41.5959 131.688 45.4893C122.541 49.3826 102.878 65.5815 94.6046 75.9837C86.3315 86.3859 83.774 35.752 90.8906 31.521Z" fill="#F35815" style="fill:#F35815;fill:color(display-p3 0.9542 0.3447 0.0835);fill-opacity:1;"/>
<path d="M257.906 31.7843C250.909 27.6241 208.798 41.6906 217.792 45.5187C226.786 49.3469 246.12 65.2746 254.254 75.5027C262.389 85.7307 264.904 35.9445 257.906 31.7843Z" fill="#F35815" style="fill:#F35815;fill:color(display-p3 0.9542 0.3447 0.0835);fill-opacity:1;"/>
<path d="M28.5667 86.249C43.2515 85.4185 54.925 92.0904 58.1273 104.007C58.1507 104.075 58.1759 104.144 58.1996 104.214C58.2128 104.288 58.2245 104.363 58.2376 104.438C58.5779 105.804 58.8089 107.238 58.9212 108.735C59.0842 109.834 59.2464 110.945 59.4124 112.037C63.3683 137.043 62.2939 156.965 73.307 171.235C79.1971 178.867 94.8744 180.256 103.782 178.969C105.014 170.665 106.411 163.252 107.944 157.117C125.827 169.464 149.064 176.925 174.464 176.925C199.715 176.925 222.83 169.551 240.67 157.333C243.724 172.864 245.409 196.711 246.005 222.455C247.01 222.368 248.024 222.324 249.044 222.324C267.82 222.324 284.017 237.23 291.511 258.76C290.96 258.775 290.404 258.931 289.903 259.244C289.413 259.551 289.068 259.93 288.899 260.124C288.692 260.361 288.499 260.618 288.328 260.857C287.987 261.336 287.599 261.94 287.189 262.591C286.341 263.936 285.299 265.645 283.956 267.686C281.29 271.74 277.551 276.928 272.557 282.012C263.126 291.613 249.301 300.776 229.776 301.245C234.039 288.586 235.966 275.716 233.944 266.717C229.274 245.934 201.159 235.249 183.202 246.706C164.919 258.371 148.668 299.577 154.068 320.581C159.372 341.211 187.212 352.593 204.811 340.592C213.428 334.716 221.731 321.777 227.4 307.679C250.385 307.933 266.509 297.326 277.135 286.509C282.525 281.021 286.523 275.462 289.319 271.212C290.707 269.101 291.827 267.268 292.619 266.01C292.918 265.536 293.161 265.164 293.356 264.874C295.034 271.395 295.95 278.4 295.95 285.693C295.949 303.603 290.448 319.778 281.606 331.303C286.262 336.259 289.031 341.948 289.031 347.342C289.03 356.285 280.56 361.384 268.723 363.898C268.437 360.478 268.151 357.057 267.865 353.637C267.848 353.436 267.832 353.235 267.815 353.035C267.767 352.466 267.48 351.922 267.043 351.523C266.605 351.125 266.052 350.904 265.482 350.909C264.912 350.915 264.363 351.145 263.932 351.552C263.503 351.958 263.227 352.508 263.189 353.077C263.176 353.278 263.163 353.479 263.15 353.68C262.914 357.291 262.677 360.904 262.442 364.516C262.432 364.665 262.422 364.815 262.412 364.964C257.359 365.622 251.917 365.914 246.401 365.914C245.763 365.914 245.129 365.908 244.5 365.9C244.228 362.363 243.957 358.825 243.685 355.288C243.669 355.082 243.653 354.875 243.637 354.668C243.595 354.13 243.326 353.613 242.916 353.23C242.505 352.848 241.985 352.632 241.446 352.63C240.907 352.628 240.384 352.839 239.969 353.218C239.556 353.596 239.283 354.112 239.237 354.649C239.219 354.856 239.201 355.062 239.183 355.269C238.886 358.738 238.589 362.209 238.292 365.679C226.479 364.958 216.839 362.503 211.674 357.383C192.607 359.467 166.447 360.245 145.091 358.614C139.764 362.842 130.943 364.958 120.325 365.649C120.317 365.546 120.309 365.442 120.301 365.339C120.043 361.964 119.785 358.589 119.527 355.214C119.512 355.027 119.499 354.839 119.485 354.651C119.439 354.065 119.148 353.504 118.702 353.091C118.253 352.678 117.685 352.446 117.098 352.447C116.511 352.449 115.944 352.684 115.498 353.1C115.054 353.515 114.767 354.079 114.725 354.665C114.712 354.852 114.698 355.04 114.685 355.228C114.446 358.604 114.206 361.98 113.967 365.356C113.954 365.536 113.941 365.717 113.928 365.896C113.21 365.907 112.486 365.914 111.756 365.914C106.424 365.914 101.162 365.64 96.2523 365.027C96.2544 364.939 96.2539 364.849 96.2484 364.76C96.2365 364.565 96.2241 364.37 96.2122 364.175C95.9982 360.664 95.7847 357.152 95.5706 353.642C95.5588 353.447 95.5464 353.251 95.5345 353.057C95.496 352.434 95.1988 351.837 94.7318 351.396C94.2634 350.956 93.6624 350.709 93.0394 350.709C92.4164 350.709 91.8154 350.957 91.347 351.396C90.88 351.837 90.5828 352.434 90.5443 353.057C90.5324 353.251 90.52 353.447 90.5081 353.642C90.2979 357.091 90.0875 360.541 89.8773 363.99C77.8092 361.509 69.1258 356.396 69.1253 347.342C69.1254 342.126 71.7131 336.633 76.0941 331.795C67.4984 320.291 62.1636 304.245 62.1634 286.496C62.1634 275.98 64.0349 266.062 67.349 257.332C19.9649 236.242 16.3933 179.699 16.2249 127.713C7.11484 124.696 1.05056 118.225 0.583343 109.967C-0.10569 97.7811 11.7001 87.2032 28.5667 86.249ZM193.181 278.457C194.22 278.156 195.385 278.306 196.388 278.858C197.39 279.411 198.141 280.316 198.441 281.355C198.742 282.395 198.57 283.486 197.993 284.403C197.546 285.118 197.076 285.85 196.602 286.57C194.755 289.092 192.91 291.716 190.996 294.319C193.75 294.425 196.499 294.58 199.234 294.86C200.573 294.955 201.668 296.253 201.722 297.37C201.807 298.122 201.539 298.973 201.007 299.548C196.02 305.164 190.38 311.335 189.637 318.164C188.964 324.633 196.238 327.073 202.711 327.424C202.98 326.918 203.277 326.422 203.598 325.937C204.386 324.746 205.332 323.616 206.435 322.55C206.607 322.386 206.804 322.24 207.027 322.164C207.249 322.088 207.479 322.087 207.683 322.167C207.886 322.247 208.054 322.405 208.164 322.612C208.275 322.82 208.321 323.061 208.334 323.299C208.412 324.831 208.332 326.302 208.095 327.71C207.905 328.841 207.614 329.933 207.22 330.984C206.99 331.576 206.572 332.118 206.026 332.495C205.465 332.888 204.754 333.1 204.072 333.081C199.87 332.946 195.609 332.038 191.747 329.684C187.815 327.496 184.992 322.409 185.564 317.881C186.473 310.429 190.266 304.593 194.492 299.379C192.324 299.053 190.163 298.671 188.003 298.273C181.429 306.646 173.71 314.121 162.285 316.337C161.349 316.364 160.408 316.283 159.49 316.077C159.178 316.005 158.901 315.805 158.719 315.531C158.537 315.257 158.465 314.931 158.519 314.616C158.573 314.301 158.75 314.018 159.013 313.82C159.276 313.623 159.605 313.526 159.923 313.563C160.634 313.637 161.349 313.618 162.065 313.515C170.119 311.122 176.218 304.564 181.293 297.025C179.184 296.64 177.073 296.272 174.956 295.961C173.575 295.758 172.189 295.577 170.801 295.43H170.798C170.529 295.401 170.283 295.267 170.113 295.057C169.943 294.846 169.863 294.577 169.892 294.308C169.921 294.039 170.055 293.791 170.266 293.621C170.476 293.451 170.746 293.372 171.015 293.4L171.018 293.401C172.406 293.549 173.797 293.663 175.191 293.755C177.852 293.93 180.522 294.018 183.194 294.091C185.576 290.273 187.74 286.316 189.792 282.6C190.156 281.883 190.513 281.161 190.843 280.465C191.311 279.487 192.14 278.758 193.181 278.457ZM176.644 213.748C169.703 213.748 164.077 219.375 164.077 226.316C164.077 233.257 169.703 238.884 176.644 238.884C183.585 238.884 189.212 233.257 189.212 226.316C189.212 219.375 183.585 213.748 176.644 213.748ZM26.9642 113.251C26.3717 113.285 25.8116 113.552 25.3783 113.996C24.9471 114.44 24.6777 115.024 24.6585 115.617C24.654 115.764 24.6484 115.912 24.6439 116.06C24.562 118.715 24.4807 121.373 24.3988 124.028C24.3942 124.175 24.3887 124.323 24.3841 124.47C24.3568 125.323 24.6752 126.124 25.3109 126.69C25.9443 127.257 26.845 127.544 27.7699 127.492C28.6947 127.44 29.5569 127.052 30.1224 126.418C30.69 125.783 30.9158 124.952 30.7923 124.107C30.7712 123.962 30.75 123.816 30.7289 123.67C30.348 121.04 29.9662 118.41 29.5853 115.78C29.5642 115.634 29.543 115.488 29.5218 115.342C29.4358 114.754 29.1019 114.205 28.6234 113.813C28.1429 113.421 27.5566 113.218 26.9642 113.251ZM42.8529 110.031C42.3069 110.062 41.7904 110.309 41.3841 110.718C40.98 111.126 40.718 111.664 40.6908 112.211C40.6836 112.359 40.6774 112.507 40.6703 112.654C40.542 115.313 40.4128 117.972 40.2845 120.63C40.2774 120.777 40.2701 120.925 40.263 121.072C40.2206 121.927 40.5253 122.728 41.1615 123.295C41.7946 123.862 42.708 124.148 43.6478 124.095C44.5877 124.042 45.4634 123.654 46.0287 123.02C46.5969 122.385 46.8088 121.554 46.6703 120.71C46.6466 120.564 46.6226 120.419 46.599 120.273C46.1717 117.646 45.744 115.019 45.3167 112.392C45.293 112.246 45.2702 112.099 45.2464 111.953C45.1577 111.413 44.8369 110.907 44.389 110.547C43.9393 110.187 43.3987 110 42.8529 110.031Z" fill="white" style="fill:white;fill-opacity:1;"/>
<path d="M247.263 179.426C269.519 186.871 304.264 206.082 303.571 233.839C304.433 266.51 243.825 319.084 214.564 295.972C216.958 294.375 219.353 292.778 221.747 291.182C221.89 291.086 222.033 290.992 222.176 290.896C222.641 290.585 222.974 290.077 223.114 289.511C223.254 288.943 223.189 288.363 222.921 287.872C222.653 287.381 222.2 287.013 221.647 286.823C221.095 286.635 220.488 286.639 219.975 286.862C219.818 286.931 219.66 286.999 219.503 287.067C216.669 288.303 213.835 289.538 211.001 290.773C210.844 290.842 210.687 290.912 210.53 290.98C210.314 291.074 210.113 291.189 209.931 291.324C208.665 289.734 207.489 287.943 206.416 285.939C205.783 284.758 205.231 283.581 204.757 282.415C205.007 282.333 205.249 282.215 205.477 282.063C205.62 281.968 205.764 281.873 205.907 281.778C208.485 280.068 211.063 278.357 213.64 276.647C213.783 276.553 213.926 276.458 214.069 276.363C214.505 276.073 214.818 275.595 214.954 275.063C215.09 274.53 215.037 273.986 214.793 273.523C214.549 273.061 214.13 272.71 213.613 272.521C213.098 272.333 212.527 272.322 212.041 272.518C211.882 272.582 211.723 272.646 211.564 272.71C208.698 273.87 205.831 275.03 202.965 276.19C201.208 265.634 206.435 256.429 218.333 251.248C264.966 235.891 224.628 212.714 247.263 179.426Z" fill="white" style="fill:white;fill-opacity:1;"/>
<path d="M247.236 181.735H247.199C246.106 199.995 219.948 214.985 185.925 217.816C183.624 215.307 180.319 213.732 176.646 213.732C172.828 213.732 169.408 215.435 167.101 218.12C130.389 216.276 101.639 200.368 101.251 180.943H101.246V179.615C120.423 194.164 145.891 203.031 173.838 203.031C202.179 203.031 227.969 193.912 247.236 178.996V181.735Z" fill="#F35815" style="fill:#F35815;fill:color(display-p3 0.9542 0.3447 0.0835);fill-opacity:1;"/>
</svg>
